<svg width="31" height="31" viewBox="0 0 31 31" fill="none" xmlns="http://www.w3.org/2000/svg">
<g clip-path="url(#clip0_325_2065)">
<path d="M16.9167 27.194V29.694H14.4167V27.194H4.41675C4.08523 27.194 3.76729 27.0623 3.53286 26.8279C3.29844 26.5935 3.16675 26.2756 3.16675 25.944V8.44403H28.1668V25.944C28.1668 26.2756 28.0351 26.5935 27.8006 26.8279C27.5662 27.0623 27.2483 27.194 26.9168 27.194H16.9167ZM5.66675 24.694H25.6668V10.944H5.66675V24.694ZM16.9167 13.444H23.1667V15.944H16.9167V13.444ZM16.9167 18.444H23.1667V20.944H16.9167V18.444ZM11.9167 13.444V17.194H15.6667C15.6667 17.9357 15.4468 18.6607 15.0348 19.2774C14.6227 19.8941 14.037 20.3748 13.3518 20.6586C12.6666 20.9424 11.9126 21.0167 11.1852 20.872C10.4577 20.7273 9.78955 20.3701 9.2651 19.8457C8.74065 19.3212 8.3835 18.653 8.2388 17.9256C8.09411 17.1982 8.16837 16.4442 8.4522 15.759C8.73603 15.0737 9.21668 14.4881 9.83336 14.076C10.45 13.664 11.1751 13.444 11.9167 13.444V13.444ZM3.16675 4.69403H28.1668V7.19403H3.16675V4.69403Z" fill="white"/>
</g>
<defs>
<clipPath id="clip0_325_2065">
<rect width="30" height="30" fill="white" transform="translate(0.666748 0.944031)"/>
</clipPath>
</defs>
</svg>
